<svg id="Capa_1" enable-background="new 0 0 512 512" height="512" viewBox="0 0 512 512" width="512" xmlns="http://www.w3.org/2000/svg"><g><path d="m484.5 30.83h-129.78c-4.143 0-7.5 3.358-7.5 7.5s3.357 7.5 7.5 7.5h129.78c6.893 0 12.5 5.607 12.5 12.5v12.5h-482v-12.5c0-6.893 5.607-12.5 12.5-12.5h297.22c4.143 0 7.5-3.358 7.5-7.5s-3.357-7.5-7.5-7.5h-297.22c-15.163 0-27.5 12.336-27.5 27.5v230c0 4.142 3.357 7.5 7.5 7.5s7.5-3.358 7.5-7.5v-202.5h135v265h-135v-32.5c0-4.142-3.357-7.5-7.5-7.5s-7.5 3.358-7.5 7.5v60c0 15.164 12.336 27.5 27.5 27.5h162.73l-4.645 14.643c-2.978 9.389-11.597 15.697-21.446 15.697h-38.139c-15.163 0-27.5 12.336-27.5 27.5 0 9.649 7.851 17.5 17.5 17.5h280c9.649 0 17.5-7.851 17.5-17.5 0-15.164-12.337-27.5-27.5-27.5h-38.139c-9.85 0-18.469-6.308-21.446-15.697l-4.645-14.643h162.73c15.164 0 27.5-12.336 27.5-27.5v-320c0-15.164-12.336-27.5-27.5-27.5zm-172.384 394.178c1.328 4.187 3.347 7.918 5.88 11.162h-60.378c-4.143 0-7.5 3.358-7.5 7.5s3.357 7.5 7.5 7.5h128.382c6.893 0 12.5 5.607 12.5 12.5 0 1.378-1.121 2.5-2.5 2.5h-280c-1.379 0-2.5-1.122-2.5-2.5 0-6.893 5.607-12.5 12.5-12.5h101.618c4.143 0 7.5-3.358 7.5-7.5s-3.357-7.5-7.5-7.5h-33.615c2.533-3.244 4.552-6.975 5.88-11.162l6.083-19.178h100.065zm172.384-34.178h-457c-6.893 0-12.5-5.607-12.5-12.5v-12.5h394.186c4.143 0 7.5-3.358 7.5-7.5s-3.357-7.5-7.5-7.5h-244.186v-265h332v265h-57.814c-4.143 0-7.5 3.358-7.5 7.5s3.357 7.5 7.5 7.5h57.814v12.5c0 6.892-5.607 12.5-12.5 12.5z"/><path d="m52.5 145.83c12.406 0 22.5-10.093 22.5-22.5s-10.094-22.5-22.5-22.5-22.5 10.093-22.5 22.5 10.094 22.5 22.5 22.5zm0-30c4.136 0 7.5 3.364 7.5 7.5s-3.364 7.5-7.5 7.5-7.5-3.364-7.5-7.5 3.364-7.5 7.5-7.5z"/><path d="m94.5 130.83h33c4.143 0 7.5-3.358 7.5-7.5s-3.357-7.5-7.5-7.5h-33c-4.143 0-7.5 3.358-7.5 7.5s3.357 7.5 7.5 7.5z"/><path d="m267.5 130.83h183c4.143 0 7.5-3.358 7.5-7.5s-3.357-7.5-7.5-7.5h-183c-4.143 0-7.5 3.358-7.5 7.5s3.357 7.5 7.5 7.5z"/><path d="m197.5 130.83h40c4.143 0 7.5-3.358 7.5-7.5s-3.357-7.5-7.5-7.5h-40c-4.143 0-7.5 3.358-7.5 7.5s3.357 7.5 7.5 7.5z"/><path d="m450.5 145.83h-243c-4.143 0-7.5 3.358-7.5 7.5s3.357 7.5 7.5 7.5h243c4.143 0 7.5-3.358 7.5-7.5s-3.357-7.5-7.5-7.5z"/><path d="m267.5 210.83h73c4.143 0 7.5-3.358 7.5-7.5s-3.357-7.5-7.5-7.5h-73c-4.143 0-7.5 3.358-7.5 7.5s3.357 7.5 7.5 7.5z"/><path d="m197.5 210.83h40c4.143 0 7.5-3.358 7.5-7.5s-3.357-7.5-7.5-7.5h-40c-4.143 0-7.5 3.358-7.5 7.5s3.357 7.5 7.5 7.5z"/><path d="m267.5 260.83h183c4.143 0 7.5-3.358 7.5-7.5s-3.357-7.5-7.5-7.5h-183c-4.143 0-7.5 3.358-7.5 7.5s3.357 7.5 7.5 7.5z"/><path d="m245 253.33c0-4.142-3.357-7.5-7.5-7.5h-40c-4.143 0-7.5 3.358-7.5 7.5s3.357 7.5 7.5 7.5h40c4.143 0 7.5-3.358 7.5-7.5z"/><path d="m458 283.33c0-4.142-3.357-7.5-7.5-7.5h-243c-4.143 0-7.5 3.358-7.5 7.5s3.357 7.5 7.5 7.5h243c4.143 0 7.5-3.358 7.5-7.5z"/><path d="m380.5 305.83h-173c-4.143 0-7.5 3.358-7.5 7.5s3.357 7.5 7.5 7.5h173c4.143 0 7.5-3.358 7.5-7.5s-3.357-7.5-7.5-7.5z"/><path d="m52.5 205.83c12.406 0 22.5-10.093 22.5-22.5s-10.094-22.5-22.5-22.5-22.5 10.093-22.5 22.5 10.094 22.5 22.5 22.5zm0-30c4.136 0 7.5 3.364 7.5 7.5s-3.364 7.5-7.5 7.5-7.5-3.364-7.5-7.5 3.364-7.5 7.5-7.5z"/><path d="m94.5 190.83h33c4.143 0 7.5-3.358 7.5-7.5s-3.357-7.5-7.5-7.5h-33c-4.143 0-7.5 3.358-7.5 7.5s3.357 7.5 7.5 7.5z"/><path d="m52.5 265.83c12.406 0 22.5-10.093 22.5-22.5s-10.094-22.5-22.5-22.5-22.5 10.093-22.5 22.5 10.094 22.5 22.5 22.5zm0-30c4.136 0 7.5 3.364 7.5 7.5s-3.364 7.5-7.5 7.5-7.5-3.364-7.5-7.5 3.364-7.5 7.5-7.5z"/><path d="m94.5 250.83h33c4.143 0 7.5-3.358 7.5-7.5s-3.357-7.5-7.5-7.5h-33c-4.143 0-7.5 3.358-7.5 7.5s3.357 7.5 7.5 7.5z"/><path d="m52.5 325.83c12.406 0 22.5-10.093 22.5-22.5s-10.094-22.5-22.5-22.5-22.5 10.093-22.5 22.5 10.094 22.5 22.5 22.5zm0-30c4.136 0 7.5 3.364 7.5 7.5s-3.364 7.5-7.5 7.5-7.5-3.364-7.5-7.5 3.364-7.5 7.5-7.5z"/><path d="m94.5 310.83h33c4.143 0 7.5-3.358 7.5-7.5s-3.357-7.5-7.5-7.5h-33c-4.143 0-7.5 3.358-7.5 7.5s3.357 7.5 7.5 7.5z"/></g></svg>