<svg id="Layer_1" height="512" viewBox="0 0 512 512" width="512" xmlns="http://www.w3.org/2000/svg" data-name="Layer 1"><path d="m371.3 0a32 32 0 1 0 32 32 32.036 32.036 0 0 0 -32-32zm0 48a16 16 0 1 1 16-16 16.018 16.018 0 0 1 -16 16z"/><path d="m392 312a32 32 0 1 0 32 32 32.036 32.036 0 0 0 -32-32zm0 48a16 16 0 1 1 16-16 16.018 16.018 0 0 1 -16 16z"/><path d="m145.211 351.667-22.953-12.553-12.553-22.953a8 8 0 0 0 -14.038 0l-12.553 22.953-22.953 12.553a8 8 0 0 0 0 14.038l22.953 12.553 12.553 22.953a8 8 0 0 0 14.038 0l12.553-22.953 22.953-12.553a8 8 0 0 0 0-14.038zm-32.687 13.677a8 8 0 0 0 -3.18 3.18l-6.657 12.176-6.659-12.175a8 8 0 0 0 -3.181-3.18l-12.175-6.658 12.175-6.659a8 8 0 0 0 3.18-3.18l6.659-12.175 6.658 12.175a8 8 0 0 0 3.18 3.181l12.175 6.659z"/><path d="m250.258 37.742-12.552-22.953a8 8 0 0 0 -14.038 0l-12.554 22.953-22.953 12.552a8 8 0 0 0 0 14.038l22.953 12.553 12.553 22.953a8 8 0 0 0 14.038 0l12.553-22.953 22.953-12.553a8 8 0 0 0 0-14.038zm-9.733 26.23a8 8 0 0 0 -3.18 3.181l-6.658 12.175-6.659-12.175a8 8 0 0 0 -3.18-3.18l-12.175-6.659 12.175-6.658a8 8 0 0 0 3.181-3.18l6.658-12.176 6.658 12.175a8 8 0 0 0 3.18 3.18l12.175 6.658z"/><path d="m72 32h16v16h-16z"/><path d="m368 400h16v16h-16z"/><path d="m424 80h-48c-31.09 0-58.467 19.153-74.125 48h-91.7c-16.09-29.731-44.105-48-74.175-48h-48c-48.523 0-88 46.654-88 104s39.477 104 88 104h48a77.4 77.4 0 0 0 45.22-14.741l18.78 32.866v205.875h16v-208a8 8 0 0 0 -1.054-3.969l-30.946-54.156v-29.875h72l5.157 6.875c-7.879 8.106-19.41 25.1-12.918 51.065l15.522-3.881c-6.47-25.881 11.937-38.894 12.676-39.4a8 8 0 0 0 1.963-11.459l-22.4-29.867v-18.02l33.83 33.83a112.029 112.029 0 0 0 19.711 46.957l-20.894 48.752a8 8 0 0 0 -.647 3.148v208h16v-206.358l17.26-40.274c15.04 14.158 34.065 22.632 54.74 22.632h48c48.523 0 88-46.654 88-104s-39.477-104-88-104zm-336 192c-39.7 0-72-39.477-72-88s32.3-88 72-88h1.154c-24.707 18.436-41.154 50.989-41.154 88s16.447 69.564 41.154 88zm81.054-20.031 4.18 7.316a61.924 61.924 0 0 1 -37.234 12.715c-39.7 0-72-39.477-72-88s32.3-88 72-88c21.524 0 41.907 11.992 55.488 32h-1.488a38.053 38.053 0 0 0 -35.316 24h-6.684a28.031 28.031 0 0 0 -28 28v8a28.031 28.031 0 0 0 28 28h20v32a8 8 0 0 0 1.054 3.969zm-10.008-51.969h-11.046a12.014 12.014 0 0 1 -12-12v-8a12.014 12.014 0 0 1 12-12h4v10a37.779 37.779 0 0 0 7.046 22zm94.611-53.657a8 8 0 0 0 -13.657 5.657v40a8 8 0 0 0 1.6 4.8l2.4 3.2h-12.314a8.009 8.009 0 0 1 -8-8v-32h-16v32a23.884 23.884 0 0 0 1.377 8h-1.063a8.009 8.009 0 0 1 -8-8v-32h-16v32a23.9 23.9 0 0 0 1.2 7.465 22.034 22.034 0 0 1 -17.2-21.465v-12a22.025 22.025 0 0 1 22-22h104.773a119.508 119.508 0 0 0 -6.725 36.734zm122.343 125.657c-39.7 0-72-39.477-72-88s32.3-88 72-88h1.154c-24.707 18.436-41.154 50.989-41.154 88s16.447 69.564 41.154 88zm48 0c-39.7 0-72-39.477-72-88s32.3-88 72-88 72 39.477 72 88-32.3 88-72 88z"/><path d="m436 152c-15.439 0-28 14.355-28 32s12.561 32 28 32 28-14.355 28-32-12.561-32-28-32zm0 48c-6.5 0-12-7.327-12-16s5.5-16 12-16 12 7.327 12 16-5.5 16-12 16z"/></svg>