<?xml version="1.0"?>
<svg xmlns="http://www.w3.org/2000/svg" xmlns:xlink="http://www.w3.org/1999/xlink" xmlns:svgjs="http://svgjs.com/svgjs" version="1.1" width="512" height="512" x="0" y="0" viewBox="0 0 512 512" style="enable-background:new 0 0 512 512" xml:space="preserve"><g>
<g xmlns="http://www.w3.org/2000/svg">
	<g>
		<path d="M367.046,88.446l-20.201-56.093c-0.812-2.254-2.652-3.984-4.95-4.657c-2.299-0.671-4.782-0.206-6.68,1.256l-45.569,35.089    c-3.281,2.527-3.893,7.235-1.367,10.516c2.528,3.282,7.235,3.893,10.516,1.367l28.609-22.03    C290.921,163.612,218.08,225.871,162.04,259.148c-64.045,38.029-120.749,47.627-121.314,47.72    c-4.085,0.666-6.859,4.516-6.195,8.603c0.598,3.681,3.779,6.298,7.393,6.298c0.399,0,0.805-0.032,1.211-0.098    c2.404-0.39,59.624-10.008,126.041-49.317c39.024-23.096,73.042-51.698,101.11-85.009c30.988-36.778,54.728-79.391,70.74-126.891    l11.911,33.074c1.101,3.057,3.982,4.96,7.056,4.96c0.843,0,1.702-0.144,2.541-0.446C366.428,96.638,368.449,92.342,367.046,88.446    z" fill="#ff630e" data-original="#000000" style=""/>
	</g>
</g>
<g xmlns="http://www.w3.org/2000/svg">
	<g>
		<path d="M504.46,497.002h-27.928v-275.08c0-4.141-3.357-7.499-7.499-7.499c-4.141,0-7.499,3.357-7.499,7.499v275.08h-66.971    V77.576h66.971v92.02c0,4.141,3.357,7.499,7.499,7.499c4.141,0,7.499-3.357,7.499-7.499v-94.52    c0-6.892-5.606-12.498-12.498-12.498h-71.97c-6.892,0-12.498,5.606-12.498,12.498v421.926h-17.732V261.537    c0-6.892-5.606-12.498-12.498-12.498h-71.97c-6.892,0-12.498,5.606-12.498,12.498v235.466h-17.732V315.027    c0-6.892-5.606-12.498-12.498-12.498h-71.97c-6.892,0-12.498,5.606-12.498,12.498v181.976h-17.732V392.519    c0-6.892-5.606-12.498-12.498-12.498H47.966c-6.892,0-12.498,5.606-12.498,12.498v24.038c0,4.141,3.357,7.499,7.499,7.499    c4.141,0,7.499-3.357,7.499-7.499v-21.538h66.971v101.983H50.466v-26.954c0-4.141-3.357-7.499-7.499-7.499    c-4.141,0-7.499,3.357-7.499,7.499v26.954H15.04V7.499C15.04,3.357,11.682,0,7.541,0C3.4,0,0.042,3.357,0.042,7.499v497.002    c0,4.141,3.357,7.499,7.499,7.499h35.427h81.969h32.73h81.969h32.73h81.969h32.73h81.969h35.427c4.141,0,7.499-3.136,7.499-7.278    C511.958,500.581,508.602,497.002,504.46,497.002z M232.135,497.002h-66.971V317.526h66.971V497.002z M346.835,497.002h-66.971    V264.036h66.971V497.002z" fill="#ff630e" data-original="#000000" style=""/>
	</g>
</g>
<g xmlns="http://www.w3.org/2000/svg">
</g>
<g xmlns="http://www.w3.org/2000/svg">
</g>
<g xmlns="http://www.w3.org/2000/svg">
</g>
<g xmlns="http://www.w3.org/2000/svg">
</g>
<g xmlns="http://www.w3.org/2000/svg">
</g>
<g xmlns="http://www.w3.org/2000/svg">
</g>
<g xmlns="http://www.w3.org/2000/svg">
</g>
<g xmlns="http://www.w3.org/2000/svg">
</g>
<g xmlns="http://www.w3.org/2000/svg">
</g>
<g xmlns="http://www.w3.org/2000/svg">
</g>
<g xmlns="http://www.w3.org/2000/svg">
</g>
<g xmlns="http://www.w3.org/2000/svg">
</g>
<g xmlns="http://www.w3.org/2000/svg">
</g>
<g xmlns="http://www.w3.org/2000/svg">
</g>
<g xmlns="http://www.w3.org/2000/svg">
</g>
</g></svg>
