<?xml version="1.0"?>
<svg xmlns="http://www.w3.org/2000/svg" xmlns:xlink="http://www.w3.org/1999/xlink" xmlns:svgjs="http://svgjs.com/svgjs" version="1.1" width="512" height="512" x="0" y="0" viewBox="0 0 480 480" style="enable-background:new 0 0 512 512" xml:space="preserve" class=""><g><path xmlns="http://www.w3.org/2000/svg" d="m48 416c0 4.417969 3.582031 8 8 8h144c4.417969 0 8-3.582031 8-8v-39.839844c-.042969-17.847656-11.855469-33.53125-29-38.496094l-27-7.710937v-10.160156c10.035156-7.492188 15.964844-19.269531 16-31.792969v-8c4.417969 0 8-3.582031 8-8v-8c0-26.507812-21.492188-48-48-48s-48 21.492188-48 48v8c0 4.417969 3.582031 8 8 8v8c.035156 12.523438 5.964844 24.300781 16 31.792969v10.160156l-26.992188 7.710937c-17.148437 4.960938-28.96875 20.644532-29.007812 38.496094zm80-184c17.589844 0 31.882812 14.195312 32 31.785156-2.296875-.558594-4.230469-2.101562-5.28125-4.21875l-3.558594-7.132812c-1.023437-2.058594-2.882812-3.574219-5.101562-4.164063-2.222656-.59375-4.585938-.199219-6.5 1.074219l-11.902344 7.9375c-6.570312 4.386719-14.292969 6.726562-22.191406 6.71875h-9.464844c0-17.671875 14.328125-32 32-32zm-22.535156 48c11.058594.011719 21.867187-3.265625 31.0625-9.40625l4.382812-2.921875c2.519532 4.445313 6.410156 7.953125 11.089844 10v10.328125c0 13.253906-10.746094 24-24 24s-24-10.746094-24-24v-8zm22.535156 48c2.6875.003906 5.367188-.265625 8-.800781v8.800781c.027344 2.277344 1.03125 4.433594 2.761719 5.921875l-10.761719 8.078125-10.761719-8.078125c1.730469-1.488281 2.734375-3.644531 2.761719-5.921875v-8.800781c2.632812.535156 5.3125.804687 8 .800781zm-64 48.160156c.019531-10.714844 7.109375-20.128906 17.398438-23.113281l17.402343-4.957031 24.398438 18.308594c2.84375 2.136718 6.757812 2.136718 9.601562 0l24.398438-18.308594 17.410156 4.964844c10.285156 2.980468 17.371094 12.394531 17.390625 23.105468v31.839844h-16v-32h-16v32h-64v-32h-16v32h-16zm0 0" fill="#ff630e" data-original="#000000" style="" class=""/><path xmlns="http://www.w3.org/2000/svg" d="m424 376c13.253906 0 24-10.746094 24-24v-96c0-13.253906-10.746094-24-24-24h-160c-13.253906 0-24 10.746094-24 24v96c0 13.253906 10.746094 24 24 24h56v32h-16v16h80v-16h-16v-32zm-160-16c-4.417969 0-8-3.582031-8-8v-96c0-4.417969 3.582031-8 8-8h160c4.417969 0 8 3.582031 8 8v96c0 4.417969-3.582031 8-8 8h-56v-40c0-4.417969-3.582031-8-8-8h-32c-4.417969 0-8 3.582031-8 8v40zm72 48v-80h16v80zm0 0" fill="#ff630e" data-original="#000000" style="" class=""/><path xmlns="http://www.w3.org/2000/svg" d="m160 160h48v40c0 3.234375 1.949219 6.152344 4.9375 7.390625s6.429688.550781 8.71875-1.734375l45.65625-45.65625h100.6875c13.253906 0 24-10.746094 24-24v-112c0-13.253906-10.746094-24-24-24h-208c-13.253906 0-24 10.746094-24 24v112c0 13.253906 10.746094 24 24 24zm-8-136c0-4.417969 3.582031-8 8-8h208c4.417969 0 8 3.582031 8 8v112c0 4.417969-3.582031 8-8 8h-104c-2.121094 0-4.15625.84375-5.65625 2.34375l-34.34375 34.34375v-28.6875c0-4.417969-3.582031-8-8-8h-56c-4.417969 0-8-3.582031-8-8zm0 0" fill="#ff630e" data-original="#000000" style="" class=""/><path xmlns="http://www.w3.org/2000/svg" d="m480 432h-480v16h16v24c0 4.417969 3.582031 8 8 8h432c4.417969 0 8-3.582031 8-8v-24h16zm-32 32h-416v-16h416zm0 0" fill="#ff630e" data-original="#000000" style="" class=""/><path xmlns="http://www.w3.org/2000/svg" d="m192 40h144v16h-144zm0 0" fill="#ff630e" data-original="#000000" style="" class=""/><path xmlns="http://www.w3.org/2000/svg" d="m192 72h144v16h-144zm0 0" fill="#ff630e" data-original="#000000" style="" class=""/><path xmlns="http://www.w3.org/2000/svg" d="m192 104h144v16h-144zm0 0" fill="#ff630e" data-original="#000000" style="" class=""/><path xmlns="http://www.w3.org/2000/svg" d="m8 272h40v-16h-32v-176h40v-16h-48c-4.417969 0-8 3.582031-8 8v192c0 4.417969 3.582031 8 8 8zm0 0" fill="#ff630e" data-original="#000000" style="" class=""/><path xmlns="http://www.w3.org/2000/svg" d="m72 64h16v16h-16zm0 0" fill="#ff630e" data-original="#000000" style="" class=""/><path xmlns="http://www.w3.org/2000/svg" d="m104 64h16v16h-16zm0 0" fill="#ff630e" data-original="#000000" style="" class=""/><path xmlns="http://www.w3.org/2000/svg" d="m432 152h16v-80c0-4.417969-3.582031-8-8-8h-32v16h24zm0 0" fill="#ff630e" data-original="#000000" style="" class=""/><path xmlns="http://www.w3.org/2000/svg" d="m432 168h16v16h-16zm0 0" fill="#ff630e" data-original="#000000" style="" class=""/><path xmlns="http://www.w3.org/2000/svg" d="m432 200h16v16h-16zm0 0" fill="#ff630e" data-original="#000000" style="" class=""/></g></svg>
