<?xml version="1.0"?>
<svg xmlns="http://www.w3.org/2000/svg" xmlns:xlink="http://www.w3.org/1999/xlink" xmlns:svgjs="http://svgjs.com/svgjs" version="1.1" width="512" height="512" x="0" y="0" viewBox="0 0 496.941 496.941" style="enable-background:new 0 0 512 512" xml:space="preserve" class=""><g>
<g xmlns="http://www.w3.org/2000/svg">
	<g>
		<g>
			<path d="M463.812,114.447L330.541,1.506C329.035,0.753,327.529,0,326.023,0H37.647c-4.518,0-7.529,3.012-7.529,7.529v481.882     c0,4.518,3.012,7.529,7.529,7.529h421.647c4.518,0,7.529-3.012,7.529-7.529V119.718     C466.824,118.212,465.318,115.2,463.812,114.447z M332.8,23.341l105.412,88.847H332.8V23.341z M451.765,481.882H45.176V15.059     h272.565v104.659c0,4.518,3.012,7.529,7.529,7.529h126.494V481.882z" fill="#ff630e" data-original="#000000" style="" class=""/>
			<path d="M90.353,158.118c-4.518,0-7.529,3.012-7.529,7.529v276.329c0,4.518,3.012,7.529,7.529,7.529     c133.271,0,164.141,0,316.235,0c4.518,0,7.529-3.012,7.529-7.529V165.647c0-4.518-3.012-7.529-7.529-7.529     c-97.129,0-163.388,0-248.471,0H90.353z M150.588,433.694H97.882v-38.4h52.706V433.694z M150.588,380.235H97.882v-39.906h52.706     V380.235z M150.588,325.271H97.882v-39.153h52.706V325.271z M150.588,271.059H97.882v-39.906h52.706V271.059z M150.588,216.094     H97.882v-42.918h52.706V216.094z M346.353,173.176h52.706v40.659h-52.706V173.176z M346.353,228.894h52.706V268.8h-52.706     V228.894z M346.353,283.859h52.706v39.906h-52.706V283.859z M346.353,338.824h52.706v39.906h-52.706V338.824z M346.353,393.788     h52.706v40.659h-52.706V393.788z M165.647,173.176h165.647v54.965H165.647V173.176z M165.647,243.2h165.647v120.471H165.647     V243.2z M165.647,378.729h165.647v55.718H165.647V378.729z" fill="#ff630e" data-original="#000000" style="" class=""/>
			<path d="M290.635,297.412l-62.494-39.906c-2.259-1.506-5.271-1.506-7.529,0c-2.259,1.506-3.765,3.765-3.765,6.776v79.059     c0,3.012,1.506,5.271,3.765,6.776c2.259,1.506,5.271,1.506,7.529,0l62.494-39.906c2.259-1.506,3.765-3.765,3.765-6.023     C294.4,301.929,292.894,298.918,290.635,297.412z M231.906,329.788v-51.953l40.659,25.6L231.906,329.788z" fill="#ff630e" data-original="#000000" style="" class=""/>
			<path d="M90.353,66.259h182.965c4.518,0,7.529-3.012,7.529-7.529c0-4.518-3.012-7.529-7.529-7.529H90.353     c-4.518,0-7.529,3.012-7.529,7.529C82.824,63.247,85.835,66.259,90.353,66.259z" fill="#ff630e" data-original="#000000" style="" class=""/>
			<path d="M90.353,112.941h182.965c4.518,0,7.529-3.012,7.529-7.529s-3.012-7.529-7.529-7.529H90.353     c-4.518,0-7.529,3.012-7.529,7.529S85.835,112.941,90.353,112.941z" fill="#ff630e" data-original="#000000" style="" class=""/>
		</g>
	</g>
</g>
<g xmlns="http://www.w3.org/2000/svg">
</g>
<g xmlns="http://www.w3.org/2000/svg">
</g>
<g xmlns="http://www.w3.org/2000/svg">
</g>
<g xmlns="http://www.w3.org/2000/svg">
</g>
<g xmlns="http://www.w3.org/2000/svg">
</g>
<g xmlns="http://www.w3.org/2000/svg">
</g>
<g xmlns="http://www.w3.org/2000/svg">
</g>
<g xmlns="http://www.w3.org/2000/svg">
</g>
<g xmlns="http://www.w3.org/2000/svg">
</g>
<g xmlns="http://www.w3.org/2000/svg">
</g>
<g xmlns="http://www.w3.org/2000/svg">
</g>
<g xmlns="http://www.w3.org/2000/svg">
</g>
<g xmlns="http://www.w3.org/2000/svg">
</g>
<g xmlns="http://www.w3.org/2000/svg">
</g>
<g xmlns="http://www.w3.org/2000/svg">
</g>
</g></svg>
